<?xml version="1.0" standalone="no"?>
<!DOCTYPE svg PUBLIC "-//W3C//DTD SVG 20010904//EN"
 "http://www.w3.org/TR/2001/REC-SVG-20010904/DTD/svg10.dtd">
<svg version="1.0" xmlns="http://www.w3.org/2000/svg"
 width="49.000000pt" height="48.000000pt" viewBox="0 0 49.000000 48.000000"
 preserveAspectRatio="xMidYMid meet">
<metadata>
Created by potrace 1.10, written by Peter Selinger 2001-2011
</metadata>
<g transform="translate(0.000000,48.000000) scale(0.100000,-0.100000)"
fill="#000000" stroke="none">
<path d="M262 398 c-13 -7 -26 -24 -29 -40 -6 -32 -15 -35 -33 -13 -16 19 -35
19 -65 -1 -36 -23 -31 -33 15 -28 25 2 39 0 35 -6 -3 -6 -12 -10 -19 -10 -16
0 -42 -57 -31 -68 4 -4 23 11 42 33 l34 40 -16 -34 c-16 -33 -14 -81 4 -81 5
0 13 25 17 56 9 75 27 56 28 -31 1 -54 4 -65 18 -65 9 0 20 5 23 10 3 6 1 10
-4 10 -6 0 -11 14 -11 30 0 17 -7 47 -15 67 -8 20 -14 38 -12 40 2 2 24 -6 48
-16 50 -23 63 -12 29 25 -17 17 -30 22 -49 18 -25 -5 -24 -4 9 25 19 17 39 31
43 31 5 0 5 5 2 10 -8 13 -34 12 -63 -2z"/>
<path d="M158 139 c-21 -11 -38 -23 -38 -28 0 -15 118 -34 170 -27 89 12 101
25 48 51 l-33 16 24 -19 24 -19 -33 -6 c-49 -10 -138 -8 -145 3 -3 6 -2 10 3
10 9 0 26 30 20 35 -2 2 -20 -6 -40 -16z"/>
</g>
</svg>
